<?xml version="1.0" encoding="utf-8"?>
<!-- Generator: Adobe Illustrator 15.1.0, SVG Export Plug-In . SVG Version: 6.00 Build 0)  -->
<!DOCTYPE svg PUBLIC "-//W3C//DTD SVG 1.1//EN" "http://www.w3.org/Graphics/SVG/1.1/DTD/svg11.dtd">
<svg version="1.1" id="Jack_Brewer_Logo" xmlns="http://www.w3.org/2000/svg" xmlns:xlink="http://www.w3.org/1999/xlink" x="0px"
   y="0px" width="100px" height="100px" viewBox="0 0 100 100" enable-background="new 0 0 100 100" xml:space="preserve">
<rect id="BG" fill-rule="evenodd" clip-rule="evenodd" fill="#4C92AD" width="100" height="100"/>
<g id="Pixel_Optimised_Mark">
	<path fill="#FFFFFF" d="M40,16v31h22v13l13-13h9V16H40L40,16z M57,34c0,2.176-0.496,4.481-2.352,5.858
		c-1.876,1.393-4.466,1.309-6.636,0.786l0.225-2.538c0.068-0.913,1.026-0.719,1.643-0.637c0.739,0.098,1.64,0.031,2.188-0.533
		C52.92,36.062,53,34.153,53,33V22h4V34z M75.537,37.522C74.25,40.083,71.726,41,69.176,41H62V22h6.602
		c2.312,0,5.319,0.419,6.461,2.75c1.291,2.635,0.073,5.397-2.594,6.415C75.45,31.921,76.847,34.917,75.537,37.522z"/>
	<path fill="#FFFFFF" d="M71.398,33.696c-0.542-0.49-1.44-0.691-2.152-0.691L66,33v5h3.246c0.927,0,1.875-0.203,2.398-1.051
		C72.193,36.062,72.215,34.434,71.398,33.696C71.176,33.495,71.621,33.897,71.398,33.696z"/>
	<path fill="#FFFFFF" d="M69.327,29.946c1.377-0.294,1.737-1.527,1.665-2.797C70.898,25.495,69.909,25,68.392,25H66v5l2.021-0.026
		C68.465,29.974,68.971,30.022,69.327,29.946S68.971,30.022,69.327,29.946z"/>
</g>
</svg>
